<svg xmlns="http://www.w3.org/2000/svg" viewBox="0 0 750 500"><g id="freepik--background-simple--inject-108"><path d="M615.4,169.55C590,137.44,545.24,121.1,505.71,131.78c-16.95,4.58-32.37,13.56-48.91,19.49s-35.6,8.53-51.18.42c-18.79-9.78-27-31.68-39.15-49C341.18,66.59,292.71,48.52,250,59.23c-35.07,8.78-64.39,36.48-76.71,70.3l0-.08c-16.07,35.2-12.78,99.89,7.4,132.91s46.65,70.21,81.91,86.16,71.15,25.66,109,33.62c55.73,11.71,123.49,7.71,176.74-12.44,38.3-14.49,70.7-45.28,84.55-83.82S640.81,201.67,615.4,169.55Z" style="fill:#e0e0e0"></path></g><g id="freepik--character-1--inject-108"><path d="M360.55,147.88l-3.42,88.31-44.22-1.43c-.52-5.13-1.1-25-1.1-25s-18.46-2-19.55-20.3c-.53-8.89-.13-27.35.42-44A34,34,0,0,1,327,112.61h0A34,34,0,0,1,360.55,147.88Z" style="fill:#ffbe9d"></path><path d="M311.79,209.76a42.7,42.7,0,0,0,23.57-7.92s-5,13.45-23.38,12.67Z" style="fill:#eb996e"></path><path d="M298.69,158.56a2.62,2.62,0,0,0,2.65,2.52,2.51,2.51,0,0,0,2.59-2.48,2.63,2.63,0,0,0-2.65-2.53A2.52,2.52,0,0,0,298.69,158.56Z" style="fill:#263238"></path><path d="M297.06,154.79c.34.33,2.25-1.23,5.07-1.36s4.95,1.19,5.24.83c.14-.16-.22-.76-1.15-1.38A7.21,7.21,0,0,0,302,151.8a6.9,6.9,0,0,0-4,1.51C297.16,154,296.89,154.65,297.06,154.79Z" style="fill:#263238"></path><path d="M325.38,158.47A2.62,2.62,0,0,0,328,161a2.51,2.51,0,0,0,2.59-2.49A2.61,2.61,0,0,0,328,156,2.5,2.5,0,0,0,325.38,158.47Z" style="fill:#263238"></path><path d="M324.77,154c.34.32,2.25-1.24,5.07-1.36s5,1.18,5.24.82c.14-.16-.22-.76-1.15-1.37a7.21,7.21,0,0,0-4.21-1.08,6.83,6.83,0,0,0-4,1.51C324.87,153.23,324.6,153.86,324.77,154Z" style="fill:#263238"></path><path d="M315.53,175.38c0-.16-1.75-.38-4.61-.61-.72,0-1.41-.15-1.55-.64a3.6,3.6,0,0,1,.38-2.15c.59-1.78,1.21-3.63,1.86-5.58,2.59-7.94,4.42-14.45,4.1-14.55S313,158.1,310.45,166q-.93,2.93-1.77,5.6a4.12,4.12,0,0,0-.24,2.84,1.82,1.82,0,0,0,1.23,1,5.09,5.09,0,0,0,1.23.11C313.76,175.61,315.53,175.54,315.53,175.38Z" style="fill:#263238"></path><path d="M323.91,176.93c-.45,0-.32,3-2.83,5.35s-5.78,2.11-5.79,2.54c0,.19.76.56,2.13.53a7.62,7.62,0,0,0,4.84-1.95,6.57,6.57,0,0,0,2.18-4.47C324.5,177.65,324.12,176.9,323.91,176.93Z" style="fill:#263238"></path><path d="M323.52,143c.31.76,3.11.26,6.43.5s6,1,6.44.31c.18-.34-.31-1-1.43-1.72a11.23,11.23,0,0,0-9.81-.62C324,142,323.38,142.65,323.52,143Z" style="fill:#263238"></path><path d="M297.71,146.59c.53.62,2.43-.14,4.77-.28s4.32.23,4.75-.46c.18-.34-.16-1-1.05-1.53a6.94,6.94,0,0,0-7.67.6C297.72,145.62,297.48,146.29,297.71,146.59Z" style="fill:#263238"></path><path d="M339.72,129l.11.07a14.49,14.49,0,0,1,5.8,9.07c0,.13,0,.25.07.37,1,5.19,1.08,10.52,2.1,15.7s3.07,10.41,7.1,13.82c1.66,1.41,4.51,2.29,5.74.5a4.58,4.58,0,0,0,.54-2.43c.38-12.67,3.29-24,2.65-37.22a11.15,11.15,0,0,0-5.05-8.84c-2.86-1.85-6.33-3.74-9.33-2.15s-6.71,7.54-9,10.09" style="fill:#263238"></path><path d="M354.79,156.77c.3-.15,12.41-4.32,12.6,8.23s-12.44,10.15-12.47,9.79S354.79,156.77,354.79,156.77Z" style="fill:#ffbe9d"></path><path d="M358.68,170c.06,0,.22.15.59.31a2.22,2.22,0,0,0,1.64,0c1.32-.51,2.4-2.63,2.43-4.89a7.22,7.22,0,0,0-.66-3.12,2.53,2.53,0,0,0-1.67-1.66,1.11,1.11,0,0,0-1.28.62c-.17.36-.08.61-.15.63s-.27-.21-.18-.73a1.38,1.38,0,0,1,.48-.79,1.68,1.68,0,0,1,1.21-.34,3.06,3.06,0,0,1,2.31,1.91,7.43,7.43,0,0,1,.81,3.49c0,2.53-1.3,4.91-3.1,5.46a2.34,2.34,0,0,1-2-.3C358.71,170.28,358.64,170,358.68,170Z" style="fill:#eb996e"></path><path d="M351.34,121.77c3.62-4.65-4-12.73-10-15.35s-14.37-.49-20.72.87c-4,.86-8.05,2.23-12.1,1.62a27.68,27.68,0,0,1-7.68-2.88,20.48,20.48,0,0,0-7.81-2.45c-2.74-.11-5.7,1-7,3.45s-.21,6,2.45,6.71c-3.24-2.28-8.5-.33-9.49,3.51s2.68,8.08,6.62,7.66c-1.62-1.54-4.59.38-4.61,2.62s1.81,4.07,3.75,5.19c5,2.85,11.09,2.78,16.67,1.56s10.88-3.51,16.43-4.87,14.87-3.88,20-1.4c3.8,1.82,6,6.87,8.36,6.06a7.64,7.64,0,0,0,4.56-5.17,22.14,22.14,0,0,0,.53-7.13" style="fill:#263238"></path><path d="M289.18,114.65s-.24.11-.63.39a3.73,3.73,0,0,0-1.28,1.63,5.24,5.24,0,0,0-.27,3.24,5.39,5.39,0,0,0,2.51,3.42,10.31,10.31,0,0,0,5.09,1.39,20.4,20.4,0,0,0,6.08-.89c4.21-1.22,8.38-3.71,12.78-6.24s8.89-4.64,13.35-5.18a16.5,16.5,0,0,1,6.28.39,15.14,15.14,0,0,1,5,2.34,15.77,15.77,0,0,1,5.13,6,10.93,10.93,0,0,1,1,2.73c-.06,0-.3-1-1.15-2.64a16.09,16.09,0,0,0-5.16-5.76,14.83,14.83,0,0,0-4.85-2.22,16.08,16.08,0,0,0-6.12-.33c-4.34.55-8.77,2.65-13.14,5.16s-8.61,5-12.9,6.24a20.35,20.35,0,0,1-6.24.86,10.44,10.44,0,0,1-5.27-1.52,6.54,6.54,0,0,1-1.76-1.67,5.55,5.55,0,0,1-.47-5.38,3.73,3.73,0,0,1,1.41-1.63A2.49,2.49,0,0,1,289.18,114.65Z" style="fill:#455a64"></path><path d="M333.51,108.31a2.41,2.41,0,0,1,.82,0,10.18,10.18,0,0,1,2.18.39,12.26,12.26,0,0,1,8.88,10.65,11.37,11.37,0,0,1,0,2.22,2.31,2.31,0,0,1-.17.79c-.1,0,.07-1.15-.19-3A12.65,12.65,0,0,0,336.4,109C334.66,108.45,333.5,108.41,333.51,108.31Z" style="fill:#455a64"></path><path d="M363.57,140.46a2.17,2.17,0,0,1-1,.28,4.93,4.93,0,0,1-2.83-.61,7.23,7.23,0,0,1-3-3.07,21.13,21.13,0,0,1-1.72-4.94,20.89,20.89,0,0,0-1.67-4.83,6.91,6.91,0,0,0-2.81-2.92,5.08,5.08,0,0,0-2.66-.66c-.65,0-1,.17-1,.12a2.23,2.23,0,0,1,1-.32,4.92,4.92,0,0,1,2.84.53,7.14,7.14,0,0,1,3.06,3A19.91,19.91,0,0,1,355.5,132a22.15,22.15,0,0,0,1.64,4.84,7.16,7.16,0,0,0,2.75,3,5.2,5.2,0,0,0,2.64.73C363.19,140.53,363.55,140.41,363.57,140.46Z" style="fill:#455a64"></path><path d="M362.91,148.75s-.1,0-.31.08a6,6,0,0,1-.9.12,11.1,11.1,0,0,1-3.34-.26,15,15,0,0,1-9-6.17,22.29,22.29,0,0,1-3.69-10.33,9.6,9.6,0,0,0-.29-1.84,2.24,2.24,0,0,0-.73-1.12,2,2,0,0,0-1.08-.41,1.26,1.26,0,0,1,1.21.24,2.44,2.44,0,0,1,.87,1.19,9.15,9.15,0,0,1,.38,1.89,23.31,23.31,0,0,0,3.76,10.08,15.22,15.22,0,0,0,8.62,6.11A17.5,17.5,0,0,0,362.91,148.75Z" style="fill:#455a64"></path><path d="M275.18,465.51l142-.92-14.33-85.82-2.49-147.55L372,222.56,358,214.66l-46.07,5.83L306,228s-20.16,6.8-28.88,10.79l-.6.27a35.33,35.33,0,0,0-15.09,13.09L223,311.94l-56.2-32.77L147,308s69,57.44,81.51,56.27,16.85-1.18,21.17-7.06c3.31-4.52,16.32-19.83,22.52-30.06l6.33,70.69Z" style="fill:#ebebeb"></path><path d="M320.17,465.6c-.15,0-1.29-31.44-2.54-70.23s-2.17-70.25-2-70.25,1.28,31.43,2.54,70.24S320.31,465.6,320.17,465.6Z" style="fill:#263238"></path><polygon points="312.11 219.91 315.68 327.25 357.96 214.66 312.11 219.91" style="fill:#ffbe9d"></polygon><path d="M316,333.3a1.54,1.54,0,0,1-.14-.33c-.1-.24-.22-.56-.37-1-.35-.88-.83-2.12-1.45-3.71-1.29-3.2-3.18-7.83-5.8-13.42-1.34-2.79-2.84-5.82-4.62-9A49.91,49.91,0,0,0,297,296.5c-1.4-1.44-3.07-2.95-3.66-5.16a6.67,6.67,0,0,1,.08-3.32c.27-1.08.65-2.12,1-3.17,1.39-4.23,2.84-8.6,4.31-13.07l.09-.28.27.34-17,1.54,0-.5,9.07-18c2.79-5.48,5.31-10.31,7.48-14.29s4-7.12,5.27-9.23c.65-1.06,1.17-1.87,1.53-2.41l.41-.6c.1-.14.15-.21.16-.2l-.12.22-.38.63c-.34.59-.83,1.4-1.45,2.45-1.25,2.14-3,5.29-5.14,9.29s-4.62,8.84-7.38,14.34l-4.34,8.7-2.33,4.66-1.21,2.4-.63,1.21-.33.6-.17.31-.1.15a.59.59,0,0,1-.3.24l0-.5,17-1.56.39,0-.12.38-.09.27c-1.48,4.47-2.93,8.84-4.32,13.07-.66,2.09-1.62,4.19-1.08,6.21s2.12,3.5,3.52,4.94a49.68,49.68,0,0,1,6.67,9.53c1.78,3.18,3.26,6.23,4.58,9,2.58,5.62,4.43,10.28,5.66,13.51.6,1.62,1.06,2.88,1.35,3.74q.23.64.33,1A2.75,2.75,0,0,1,316,333.3Z" style="fill:#263238"></path><path d="M315.86,334.31a1.33,1.33,0,0,1,0-.35l.16-1a22.53,22.53,0,0,1,1.05-3.84,68.19,68.19,0,0,1,6.87-13c1.71-2.6,3.66-5.4,5.87-8.34a105.76,105.76,0,0,1,7.5-9A73.42,73.42,0,0,1,347,290a65.94,65.94,0,0,1,5.79-3.83c2-1.2,4.1-2.34,6.1-3.67l-.07.36a29.58,29.58,0,0,0-10.75-9.69l-.36-.19.33-.24a47.94,47.94,0,0,1,21-8.89l-.19.21,2.17-29.84c.28-3.6.5-6.46.66-8.44.08-1,.14-1.7.19-2.23l.06-.57a.55.55,0,0,1,0-.2,1,1,0,0,1,0,.2l0,.57c0,.54-.07,1.29-.12,2.24-.12,2-.3,4.84-.52,8.45-.49,7.29-1.17,17.6-2,29.86v.18l-.18,0a47.61,47.61,0,0,0-20.79,8.84l0-.43a30.06,30.06,0,0,1,10.94,9.85l.15.21-.22.15c-2,1.34-4.12,2.49-6.13,3.69a64.84,64.84,0,0,0-5.75,3.78,74.51,74.51,0,0,0-9.62,8.69,104.09,104.09,0,0,0-7.5,9c-2.22,2.91-4.19,5.69-5.91,8.28a69.87,69.87,0,0,0-7,12.85,23.86,23.86,0,0,0-1.14,3.79c-.09.42-.16.76-.21,1A1.55,1.55,0,0,1,315.86,334.31Z" style="fill:#263238"></path><rect x="339.78" y="301.58" width="29.86" height="5.81" style="fill:#263238"></rect><path d="M362.9,353.91a1.89,1.89,0,0,1-.51.15l-1.48.32a44.27,44.27,0,0,1-5.53.79,19.73,19.73,0,0,1-8.22-1,13.58,13.58,0,0,1-7.6-6.59,23.11,23.11,0,0,1-2.07-9.93c0-3.13.1-5.9.11-8.26s.08-4.25.15-5.57c0-.66.07-1.17.1-1.51a1.74,1.74,0,0,1,.08-.53,3.77,3.77,0,0,1,0,.53c0,.41,0,.91,0,1.52,0,1.39,0,3.27,0,5.56v8.25a23,23,0,0,0,2.06,9.71,13.15,13.15,0,0,0,7.29,6.37,19.78,19.78,0,0,0,8,1.07,54.12,54.12,0,0,0,5.51-.62l1.5-.22A2.61,2.61,0,0,1,362.9,353.91Z" style="fill:#263238"></path><path d="M368.3,321.09c0,.14-6.8.42-15.18.61s-15.19.24-15.19.09,6.79-.41,15.18-.61S368.3,321,368.3,321.09Z" style="fill:#263238"></path><path d="M353.51,321.3v-9.91a2.91,2.91,0,0,1,2.91-2.91h0a2.91,2.91,0,0,1,2.91,2.91v16.33a1,1,0,0,1-2,.14c0-.12,0-.26,0-.39,0-2.49-.28-6.29-.28-6.29Z" style="fill:#407BFF"></path><path d="M353,338.42a47.72,47.72,0,0,1-.26-7,47.53,47.53,0,0,1,.26-7,47.53,47.53,0,0,1,.26,7A47.72,47.72,0,0,1,353,338.42Z" style="fill:#263238"></path><path d="M358.63,351.39c-.14,0-.26-5-.26-11.14s.12-11.14.26-11.14.26,5,.26,11.14S358.78,351.39,358.63,351.39Z" style="fill:#263238"></path><path d="M312.86,242.49l13.89,16.95c9.81-9.9,16.86-19.68,23-24,0,0-34.06,93.32-34.11,91.77S312.86,242.49,312.86,242.49Z" style="fill:#407BFF"></path><path d="M349.79,235.48a2.69,2.69,0,0,1-.35.39l-1.08,1c-.94.89-2.28,2.21-3.92,3.85-3.29,3.27-7.66,8-12.43,13.2s-9.2,9.9-12.56,13.12c-1.68,1.61-3.06,2.88-4.05,3.73l-1.14,1a2.28,2.28,0,0,1-.42.32s.11-.15.35-.39l1.07-1c.95-.89,2.29-2.21,3.93-3.85,3.28-3.27,7.65-8,12.43-13.2s9.2-9.9,12.56-13.12c1.68-1.61,3.06-2.88,4.05-3.73l1.13-1C349.63,235.57,349.77,235.46,349.79,235.48Z" style="fill:#263238"></path><path d="M326.66,259.37c-.11.09-3.29-3.61-7.1-8.27s-6.81-8.52-6.7-8.61,3.29,3.61,7.1,8.28S326.77,259.28,326.66,259.37Z" style="fill:#263238"></path><path d="M267.62,274.91a3.37,3.37,0,0,1,.12.7c.07.51.15,1.18.25,2,.21,1.75.48,4.28.8,7.42.63,6.27,1.38,14.94,2.16,24.52s1.5,18.2,2,24.53c.26,3.09.47,5.62.62,7.43.07.84.12,1.51.16,2a4.74,4.74,0,0,1,0,.71,3.72,3.72,0,0,1-.13-.7c-.06-.51-.14-1.18-.25-2-.21-1.75-.48-4.28-.79-7.42-.63-6.27-1.39-14.94-2.17-24.52s-1.49-18.2-2-24.53c-.26-3.09-.47-5.62-.63-7.43-.06-.84-.11-1.51-.15-2A3.45,3.45,0,0,1,267.62,274.91Z" style="fill:#263238"></path><path d="M398.31,231s22.26,0,27.84,42.82S444,395.17,421.69,410.06,296,423.9,296,423.9V382.42l84.82-9.36s-.32-7.72,4-7.66L380,267.52S379,232.86,398.31,231Z" style="fill:#ebebeb"></path><path d="M380.22,300.05s0,.4.09,1.18.11,2,.2,3.48c.16,3.07.4,7.55.71,13.29.59,11.51,1.44,28.05,2.48,48.2v.21h-.22a3.11,3.11,0,0,0-1.95.75,4.61,4.61,0,0,0-1.2,1.91,13.33,13.33,0,0,0-.64,4.78v.21l-.2,0-83.46,8.59.23-.26V423.9l-.25-.25c36.11.39,67.6-1,89.85-3.85,5.57-.71,10.54-1.52,14.87-2.37a107.9,107.9,0,0,0,10.91-2.75c1.45-.49,2.73-1,3.83-1.39s2-.86,2.71-1.23l1.58-.9.55-.29s-.17.12-.52.33l-1.57.94c-.71.38-1.63.77-2.7,1.28s-2.37.92-3.83,1.42a105.54,105.54,0,0,1-10.91,2.84c-4.33.88-9.31,1.71-14.87,2.44-22.27,2.89-53.78,4.4-89.91,4h-.25v-.25c0-12,0-24.66,0-37.69v-4l.24,0,83.46-8.5-.2.23a13.49,13.49,0,0,1,.68-5,5,5,0,0,1,1.31-2.07,3.63,3.63,0,0,1,2.23-.86l-.2.22c-1-20.15-1.75-36.69-2.29-48.21-.26-5.74-.47-10.22-.61-13.29-.06-1.52-.1-2.68-.14-3.48S380.22,300.05,380.22,300.05Z" style="fill:#263238"></path><path d="M395.7,376.3c-.09,0-.42-.86-1.18-2.16a17.24,17.24,0,0,0-3.79-4.45,17.48,17.48,0,0,0-5.07-2.91c-1.41-.51-2.35-.67-2.33-.76a7.1,7.1,0,0,1,2.45.41,15.27,15.27,0,0,1,9.06,7.53A7,7,0,0,1,395.7,376.3Z" style="fill:#263238"></path><path d="M385.73,384a23.74,23.74,0,0,0-6.42-10.37,4.84,4.84,0,0,1,1.49,1.08,15.64,15.64,0,0,1,2.84,3.42,15.84,15.84,0,0,1,1.8,4.06A4.61,4.61,0,0,1,385.73,384Z" style="fill:#263238"></path><polygon points="92.67 262.34 153.47 424 282.44 426.61 229.29 263.45 92.67 262.34" style="fill:#407BFF"></polygon><g style="opacity:0.5"><path d="M173.88,424.29S143,365,133.41,325.44c-5.47-22.37-10.34-62.9-10.34-62.9l80.5.71s26.7,42.49,42.07,84.95a421,421,0,0,1,20.16,78.11l-41.31-.91L210.9,385.78s-4.24,2.29-10.07-.67l14,40.08Z" style="fill:#fff"></path></g><path d="M218,360.61c-.75-2.18-4-9.88-3.48-13.72s4.32-8,4.53-11.85.32-12.43-.66-16.61a90.1,90.1,0,0,0-3.79-10.86s-5.83-9.23-11.69-9.44l-7.13-.26s-5.16,1.24-2.66,7.62,8.4,17.33,9.25,19.22,4.83,9.19,3.93,13.87-7.71,17.74-6.81,20.92l-3.65-.13s-3.37-5.84-8.1-8.31-14.88-13.13-17-19.5-4.5-21.19-5.93-25.68-3.64-8.43-7.35-9.43-8.68.26-8.68.26S142.13,299,145.1,309s4.64,10.61,8.16,16.46,4.41,7.6,7.2,10.14,9.39,5.35,12.23,11.46S177,360.26,182.08,369s7,12,11,12,5.3-4.53,5.45-7.25a31.76,31.76,0,0,0,0-4.29l4.84.18s5.47,10.22,11.21,12.14,5.34-3.24,5.63-5.24S218.79,362.78,218,360.61Zm-28.35,11.8c-1.52-.78-4.17-5.9-6.8-10.34-2-3.32-1.79-5.07-1.58-5.74a1.25,1.25,0,0,1,.15-.33l-.08.11c.2-1.16,2.15-.65,3.58-.08,1.05.42,6.05,2.37,7.68,9.61S191.21,373.18,189.68,372.41Zm25.08.91c-1,.68-4.37.15-7.72-7.15s.42-8.94,1.21-9.29c1.07-.48,2.72-.86,3.72.34l-.15-.11a3.71,3.71,0,0,1,.38.34,9.33,9.33,0,0,1,2.37,5.78C215,367.58,215.78,372.64,214.76,373.32Z" style="fill:#fff"></path><path d="M197.55,357c1.2-.08.35-4.64.35-4.64a34.5,34.5,0,0,0,0-5.16c-.22-2.15.89-4.12,1.66-6.11s0-7.3-1-10-.3-2.91-.3-2.91c3.08-1,.24-7.41-1.83-13.4s-4.13-5.56-4.13-5.56-1.38-.05-2.17,4.83-2.14,6.61-5.1,6.6l-1.58,0c-3,0-5.63-2.1-9.83-7.16s-5.57-5.11-5.57-5.11-2.41-.59-.37,5.4,3.57,12.33,7.43,13.61c0,0,.8.28,1.71,3s3.77,8.07,5.94,10.16,4.68,4.2,5.94,6.38,3.61,5.29,3.61,5.29,2.87,4.64,4.15,4.81Z" style="fill:#fff"></path><path d="M160.12,264s-1.57.45-.44,3.08,1,4.18,1.65,4.89a23.08,23.08,0,0,0,2.2,2s-1.8.62-.47,3.43,1.67,5.58,2.28,6.81,1.9,1.63,2.5,2.34-2-.08-1.32,2.36,2.22,4.22,2.21,6.47,1.09,5.21,3.23,6.32,1.74,2.65,1.8,3.86a19.75,19.75,0,0,0,1,4.87c.84,3.13,5.65,8,8.6,7.73s5.78-3.75,5.07-5.85a32.13,32.13,0,0,0-4.8-7.94c-1.25-1.25-2.31-1.29-2.08-2.66s1.77.75,1.7-1.15a10.21,10.21,0,0,0-1.46-5.57c-1.19-1.77-1.55-3.5-2.69-5.79s-3.37-2.71-3.19-3.22,1.4-.29.39-2.57-1.07-.73-2.15-4.22-1.57-5.58-2.62-5.27-.89-1.24-1.26-3.67.51-1.53-1-4.17S160.12,264,160.12,264Z" style="fill:#fff"></path><path d="M162.14,349.9l1.33-3.18-2.15-6.39s3.6-2.19,8.61,5.08,4.68,10.72,4.68,10.72l-5.94-.21a9.61,9.61,0,0,0-.21,6.52c1.21,3.28,3,2.88,4.59,8.63a46,46,0,0,1,1.77,8.07L193.34,424l-8.27-.3-20-47.53s-2.27-1.47-6-8.68-7.23-16.58-4.84-19.11S162.14,349.9,162.14,349.9Z" style="fill:#fff"></path><path d="M228.19,352.31,224.62,349l-2.23-6.39s-5.22-2.51-5.31,4.57,2.65,10.65,2.65,10.65l5.94.21s3.71,3.44,4.74,6.7-1,2.73,1.28,8.51a61.1,61.1,0,0,0,3.78,8.14L247.59,426l8.28.3L243.39,379s1.32-1.34.09-8.46-4.08-16.45-8.3-19.22A5,5,0,0,0,228.19,352.31Z" style="fill:#fff"></path><path d="M92.67,262.34l136.62.89h.15l.05.15c14.93,45.78,32.88,100.84,52.19,160l1,3.11.12.35h-.37l-129-2.63h-.16l-.06-.15L92.67,262.34c.72,1.93,24.85,65.8,61,161.58l-.21-.15,129,2.58-.25.34c-.34-1-.68-2.06-1-3.11l-52.1-160.06.2.15Z" style="fill:#263238"></path><path d="M296.2,385.8H283.27s-6.62-6.39-8.42-7.29-10.64-3.57-10.64-3.57l3.41,9.46a14.15,14.15,0,0,1,1.57.55c2.26.88,1.63,2.88-.17,2.88H256s-13.34-6.4-15.32-5.23c-1.66,1-2.24,2.75-.54,5.23s13.39,8.31,14.73,8.76l3.82,1.12-3.59,1.12-17-5.93c-1.11-.2-2.63-.38-3.13.26a2.27,2.27,0,0,0,.09,3.28,71.58,71.58,0,0,0,7.69,6.05s-2.71,4-.47,6,8.76,8.09,8.76,8.09.68,3.37,2.7,4.94,24.26,1.57,25.83,1.57,10.56-5.16,10.56-5.16l5.88-.62Z" style="fill:#ffbe9d"></path><path d="M257.65,408.91a7,7,0,0,1-2.43.33,7.63,7.63,0,0,1-2.66-.47,14.5,14.5,0,0,1-2.89-1.54c-1.93-1.25-3.65-2.41-4.89-3.27a11.29,11.29,0,0,1-1.93-1.48,11.4,11.4,0,0,1,2.14,1.17c1.28.78,3,1.89,5,3.14a16.18,16.18,0,0,0,2.78,1.53,7.61,7.61,0,0,0,2.5.55C256.71,408.94,257.65,408.82,257.65,408.91Z" style="fill:#eb996e"></path><path d="M258.67,417.23c.05,0-.48.64-1.68.95a6.32,6.32,0,0,1-4.59-.77,18.85,18.85,0,0,1-3.72-2.77,5.84,5.84,0,0,1-1.27-1.44c.12-.14,2.16,2,5.24,3.75a6.44,6.44,0,0,0,4.26.87A10.54,10.54,0,0,0,258.67,417.23Z" style="fill:#eb996e"></path><path d="M265,398.82a8.88,8.88,0,0,1-3.52-.27,9,9,0,0,1-3.34-1.14,18.94,18.94,0,0,1,3.45.63A19.2,19.2,0,0,1,265,398.82Z" style="fill:#eb996e"></path><path d="M87.63,291.57A5.41,5.41,0,0,1,85.72,284a5.93,5.93,0,0,1,2-2.17c2.17-1.15,21.37-4.75,23.43-5s2.44,3.67-.25,5.62-23.22,9.14-23.22,9.14Z" style="fill:#ffbe9d"></path><path d="M92.1,305.49a5.42,5.42,0,0,1-1.91-7.55,5.85,5.85,0,0,1,2-2.17c2.17-1.15,21.77-6.3,23.43-5,2,1.5,2.44,3.66-.25,5.62s-23.22,9.14-23.22,9.14Z" style="fill:#ffbe9d"></path><path d="M96,302.61a6.33,6.33,0,0,0-4.23,3.32,4.38,4.38,0,0,0-.39,2.9,8.31,8.31,0,0,0,5.84,6.24c3.51,1.1,14.94-1.47,14.94-1.47l-2.64-7.37,8-2.62c3.26-1.3,1.68-6.4-2.24-5.41C114,298.52,100.58,301.47,96,302.61Z" style="fill:#ffbe9d"></path><path d="M90,298.14a5.41,5.41,0,0,1-1.91-7.55,5.93,5.93,0,0,1,2-2.17c2.17-1.15,19.63-4.26,21.66-4.69s4.21,3.32,1.52,5.27S90,298.14,90,298.14Z" style="fill:#ffbe9d"></path><path d="M109.73,291.13a19.8,19.8,0,0,1-3.06.78c-1.9.42-4.53,1-7.44,1.54a19.17,19.17,0,0,0-7,2.57A11.46,11.46,0,0,0,90,298.2s.08-.3.37-.77a6.7,6.7,0,0,1,1.6-1.71,11.75,11.75,0,0,1,3-1.64,28.33,28.33,0,0,1,4.06-1.14c2.92-.58,5.57-1.06,7.49-1.39A18.35,18.35,0,0,1,109.73,291.13Z" style="fill:#eb996e"></path><path d="M106.36,284.75a17.17,17.17,0,0,1-2.93.71l-7.13,1.38a17.23,17.23,0,0,0-6.63,2.59,14.26,14.26,0,0,0-2,2.14s.08-.29.35-.74a6.74,6.74,0,0,1,1.46-1.69c1.45-1.28,4-2.2,6.75-2.8s5.33-.94,7.17-1.24A17.69,17.69,0,0,1,106.36,284.75Z" style="fill:#eb996e"></path><path d="M110,299.3a16.84,16.84,0,0,1-2.75.84c-1.71.46-4.1,1.07-6.76,1.51A17.8,17.8,0,0,0,94,303.81,11.33,11.33,0,0,0,92,305.72s.07-.27.35-.69a6.44,6.44,0,0,1,1.51-1.52,16.24,16.24,0,0,1,6.54-2.37c2.67-.44,5-1,6.78-1.35A15.33,15.33,0,0,1,110,299.3Z" style="fill:#eb996e"></path><path d="M111.08,305.72a20,20,0,0,1-4.17,1.67,19.94,19.94,0,0,1-4.36,1.17,19.43,19.43,0,0,1,4.17-1.66A20,20,0,0,1,111.08,305.72Z" style="fill:#eb996e"></path></g><g id="freepik--Desk--inject-108"><path d="M699.8,464.7c0,.14-145.43.26-324.78.26S50.2,464.84,50.2,464.7s145.4-.26,324.82-.26S699.8,464.56,699.8,464.7Z" style="fill:#263238"></path></g></svg>